Coordinates
version=1
nRows=11
nColumns=40
inDegrees=yes

Units are S.I. units (second, meters, Newtons, ...)
Angles are in degrees.

endheader
time	pelvis_tilt	pelvis_list	pelvis_rotation	pelvis_tx	pelvis_ty	pelvis_tz	hip_flexion_r	hip_adduction_r	hip_rotation_r	knee_angle_r	knee_angle_r_beta	ankle_angle_r	subtalar_angle_r	mtp_angle_r	hip_flexion_l	hip_adduction_l	hip_rotation_l	knee_angle_l	knee_angle_l_beta	ankle_angle_l	subtalar_angle_l	mtp_angle_l	lumbar_extension	lumbar_bending	lumbar_rotation	arm_flex_r	arm_add_r	arm_rot_r	elbow_flex_r	pro_sup_r	wrist_flex_r	wrist_dev_r	arm_flex_l	arm_add_l	arm_rot_l	elbow_flex_l	pro_sup_l	wrist_flex_l	wrist_dev_l
      4.06000000	    -25.25544245	      2.17696300	    -12.69190164	      0.06479257	      0.89825853	      0.21731874	     23.39669037	      3.27159192	      5.36769937	     31.38193457	     31.38193457	     10.96109481	      0.00000000	      0.00000000	     50.11648362	     -8.16484630	    -12.84046910	      8.86838448	      8.86838448	    -19.57917474	      0.00000000	      0.00000000	     31.05346842	      2.46775716	      9.76049632	     15.96334222	    -15.05464454	     26.28732762	     50.77977206	     63.37196165	      0.00000000	      0.00000000	    -28.49711904	     -9.76961073	     46.71232017	     11.37906079	     24.17966652	      0.00000000	      0.00000000
      4.07000000	    -24.99353448	      2.25571641	    -12.32576799	      0.07426412	      0.89876592	      0.21561084	     23.50686365	      2.90322038	      5.45830391	     33.08039051	     33.08039051	      9.86257766	      0.00000000	      0.00000000	     49.85097199	     -7.72549551	    -12.52984493	      9.69642990	      9.69642990	    -20.06257353	      0.00000000	      0.00000000	     30.75791726	      2.06691703	      9.55742670	     15.04018301	    -14.95044363	     26.39450856	     49.69883118	     63.25201160	      0.00000000	      0.00000000	    -27.54811874	     -9.92400884	     46.67979883	     11.49292177	     24.18431738	      0.00000000	      0.00000000
      4.08000000	    -24.79718969	      2.48600562	    -11.94699934	      0.08355965	      0.89935442	      0.21365162	     23.98636404	      2.31477185	      5.23909797	     35.20386094	     35.20386094	      8.40516745	      0.00000000	      0.00000000	     49.63462883	     -7.14975312	    -12.34701264	     10.48733315	     10.48733315	    -20.36872088	      0.00000000	      0.00000000	     30.57926418	      1.56324473	      9.28824710	     14.17822686	    -14.66808926	     26.44582622	     48.35856764	     63.06768421	      0.00000000	      0.00000000	    -26.58408529	    -10.00529264	     46.64316642	     11.58281661	     24.19748646	      0.00000000	      0.00000000
      4.09000000	    -25.03628380	      3.05461933	    -11.57985510	      0.09241039	      0.89954530	      0.21151672	     25.22276770	      1.45553378	      5.08784577	     37.61084148	     37.61084148	      6.76693867	      0.00000000	      0.00000000	     49.85674827	     -6.37947499	    -12.49324384	     11.18117140	     11.18117140	    -20.54975725	      0.00000000	      0.00000000	     31.00003930	      0.86623656	      9.11145571	     13.33058662	    -14.23244199	     26.59759795	     46.67312722	     62.65144974	      0.00000000	      0.00000000	    -25.68744962	    -10.11906522	     46.45821151	     11.63892510	     24.22469636	      0.00000000	      0.00000000
      4.10000000	    -24.73310380	      3.12722505	    -11.19999424	      0.10132963	      0.90064767	      0.20964097	     25.74957210	      1.04761739	      4.97156227	     39.88150808	     39.88150808	      4.90939925	      0.00000000	      0.00000000	     49.47934632	     -5.88105412	    -12.15590863	     11.96497949	     11.96497949	    -20.35604680	      0.00000000	      0.00000000	     30.57950482	      0.50648559	      8.86035826	     12.42759410	    -14.10027418	     26.74385295	     45.40485111	     62.44304347	      0.00000000	      0.00000000	    -24.48556060	    -10.27823269	     46.31141084	     11.82454578	     24.25162162	      0.00000000	      0.00000000
      4.11000000	    -24.87831509	      3.49282570	    -10.84152418	      0.10974058	      0.90127066	      0.20758238	     27.03615323	      0.40686010	      4.86855669	     42.40168392	     42.40168392	      2.70293626	      0.00000000	      0.00000000	     49.54999350	     -5.22314306	    -12.09985286	     12.64532568	     12.64532568	    -19.93191325	      0.00000000	      0.00000000	     30.77904466	      0.00715230	      8.64086330	     11.62782574	    -13.79052317	     27.06800056	     43.72758391	     61.89092285	      0.00000000	      0.00000000	    -23.36840732	    -10.39702910	     45.77678519	     11.97013638	     24.35398742	      0.00000000	      0.00000000
      4.12000000	    -24.57077844	      3.48313889	    -10.45964350	      0.11816823	      0.90260688	      0.20566041	     27.75500713	      0.06865167	      4.66511811	     44.79443474	     44.79443474	      0.60532822	      0.00000000	      0.00000000	     49.06858581	     -4.73859010	    -11.73080644	     13.26099952	     13.26099952	    -19.42541516	      0.00000000	      0.00000000	     30.26590709	     -0.25076642	      8.36781006	     10.74159624	    -13.70068571	     27.25045794	     42.40511035	     61.67919608	      0.00000000	      0.00000000	    -22.00624891	    -10.56755908	     45.55603619	     12.19074539	     24.41538167	      0.00000000	      0.00000000
      4.13000000	    -24.62319402	      3.73092664	    -10.07320906	      0.12631169	      0.90360904	      0.20358677	     29.03361431	     -0.50063529	      4.49478621	     47.23637555	     47.23637555	     -1.88817628	      0.00000000	      0.00000000	     48.91459997	     -4.08647574	    -11.57087670	     13.75281118	     13.75281118	    -18.61091311	      0.00000000	      0.00000000	     30.29642183	     -0.65439773	      8.10295747	      9.94611629	    -13.43171410	     27.57995885	     40.66902249	     61.32919848	      0.00000000	      0.00000000	    -20.74234189	    -10.69454937	     45.11091283	     12.34941331	     24.56214633	      0.00000000	      0.00000000
      4.14000000	    -24.57974388	      3.81416688	     -9.76747450	      0.13402188	      0.90472128	      0.20170172	     30.25517977	     -0.84707350	      4.39488146	     49.69472904	     49.69472904	     -3.93170844	      0.00000000	      0.00000000	     48.62322925	     -3.61327693	    -11.37805472	     14.15939480	     14.15939480	    -17.97788740	      0.00000000	      0.00000000	     30.10154860	     -0.87487843	      7.86543137	      9.17466992	    -13.29096367	     27.96755426	     39.09851911	     61.04877849	      0.00000000	      0.00000000	    -19.34785509	    -10.84069114	     44.65186582	     12.59110888	     24.75907178	      0.00000000	      0.00000000
      4.15000000	    -24.72198484	      3.94057245	     -9.61425912	      0.14117194	      0.90553218	      0.19995994	     31.81131328	     -1.12981159	      4.41734994	     52.19551837	     52.19551837	     -5.63769467	      0.00000000	      0.00000000	     48.49595288	     -3.24994886	    -11.42720494	     14.47561803	     14.47561803	    -17.41819882	      0.00000000	      0.00000000	     30.08364579	     -1.01990479	      7.46723073	      8.74380853	    -13.29264259	     29.62307627	     37.56627228	     58.65783614	      0.00000000	      0.00000000	    -18.24091123	    -10.15486053	     36.74082204	     12.15585781	     33.10862066	      0.00000000	      0.00000000
      4.16000000	    -24.60987007	      3.92011384	     -9.31751527	      0.14850673	      0.90679633	      0.19815114	     32.96894909	     -1.38596812	      4.27290160	     54.46241032	     54.46241032	     -6.86973884	      0.00000000	      0.00000000	     48.03619565	     -2.83009016	    -11.13389908	     14.69683850	     14.69683850	    -16.75025833	      0.00000000	      0.00000000	     29.76049281	     -1.12968246	      7.21152076	      7.97819197	    -13.16502762	     29.89715266	     36.02039857	     58.63859337	      0.00000000	      0.00000000	    -16.75034699	    -10.33486074	     36.59025798	     12.44438122	     33.13439693	      0.00000000	      0.00000000
